<mxfile host="app.diagrams.net" agent="Mozilla/5.0 (Windows NT 10.0; Win64; x64) AppleWebKit/537.36 (KHTML, like Gecko) Chrome/131.0.0.0 Safari/537.36" version="25.0.1">
  <diagram name="Страница — 1" id="lvV23MgvupXoPES7Z2mo">
    <mxGraphModel dx="1434" dy="1907" grid="1" gridSize="10" guides="1" tooltips="1" connect="1" arrows="1" fold="1" page="1" pageScale="1" pageWidth="827" pageHeight="1169" math="0" shadow="0">
      <root>
        <mxCell id="0" />
        <mxCell id="1" parent="0" />
        <mxCell id="UsMFPPyO1zCqskzo3vwZ-1" value="" style="swimlane;startSize=0;" vertex="1" parent="1">
          <mxGeometry x="520" y="-160" width="120" height="200" as="geometry" />
        </mxCell>
        <mxCell id="UsMFPPyO1zCqskzo3vwZ-2" value="" style="swimlane;startSize=0;" vertex="1" parent="1">
          <mxGeometry x="160" y="-160" width="120" height="200" as="geometry" />
        </mxCell>
        <mxCell id="UsMFPPyO1zCqskzo3vwZ-4" value="" style="endArrow=classic;html=1;rounded=0;" edge="1" parent="1">
          <mxGeometry width="50" height="50" relative="1" as="geometry">
            <mxPoint x="60" y="-80" as="sourcePoint" />
            <mxPoint x="156" y="-80" as="targetPoint" />
          </mxGeometry>
        </mxCell>
        <mxCell id="UsMFPPyO1zCqskzo3vwZ-5" value="" style="endArrow=classic;html=1;rounded=0;exitX=1.033;exitY=0.805;exitDx=0;exitDy=0;exitPerimeter=0;" edge="1" parent="1" source="UsMFPPyO1zCqskzo3vwZ-2">
          <mxGeometry width="50" height="50" relative="1" as="geometry">
            <mxPoint x="390" y="10" as="sourcePoint" />
            <mxPoint x="360" as="targetPoint" />
          </mxGeometry>
        </mxCell>
        <mxCell id="UsMFPPyO1zCqskzo3vwZ-6" value="" style="endArrow=none;dashed=1;html=1;dashPattern=1 3;strokeWidth=2;rounded=0;" edge="1" parent="1">
          <mxGeometry width="50" height="50" relative="1" as="geometry">
            <mxPoint x="380" as="sourcePoint" />
            <mxPoint x="410" as="targetPoint" />
          </mxGeometry>
        </mxCell>
        <mxCell id="UsMFPPyO1zCqskzo3vwZ-7" value="" style="endArrow=classic;html=1;rounded=0;" edge="1" parent="1">
          <mxGeometry width="50" height="50" relative="1" as="geometry">
            <mxPoint x="420" as="sourcePoint" />
            <mxPoint x="510" as="targetPoint" />
          </mxGeometry>
        </mxCell>
        <mxCell id="UsMFPPyO1zCqskzo3vwZ-8" value="" style="endArrow=classic;html=1;rounded=0;" edge="1" parent="1">
          <mxGeometry width="50" height="50" relative="1" as="geometry">
            <mxPoint x="400" y="-120" as="sourcePoint" />
            <mxPoint x="510" y="-120" as="targetPoint" />
          </mxGeometry>
        </mxCell>
        <mxCell id="UsMFPPyO1zCqskzo3vwZ-9" value="" style="endArrow=classic;html=1;rounded=0;exitX=1;exitY=0.434;exitDx=0;exitDy=0;exitPerimeter=0;" edge="1" parent="1" source="UsMFPPyO1zCqskzo3vwZ-1">
          <mxGeometry width="50" height="50" relative="1" as="geometry">
            <mxPoint x="650" y="-80" as="sourcePoint" />
            <mxPoint x="730" y="-73" as="targetPoint" />
          </mxGeometry>
        </mxCell>
      </root>
    </mxGraphModel>
  </diagram>
</mxfile>
